<svg width="330" height="50" viewBox="0 0 330 50" fill="none" xmlns="http://www.w3.org/2000/svg">
<g clip-path="url(#clip0_328_31414)">
<path d="M327.4 13.3L324.5 38.8C323.8 43.9 319.5 47.6 314.4 47.5H15.3997C10.2997 47.6 5.99973 43.8 5.29973 38.8L2.49973 13.3C2.09973 7.8 6.09973 3 11.4997 2.5C11.8997 2.5 12.1997 2.5 12.5997 2.5H317.3C322.8 2.4 327.3 6.7 327.4 12.1C327.5 12.5 327.5 12.9 327.4 13.3Z" fill="#D94A4A"/>
<path d="M327.4 13.3L324.5 38.8C323.8 43.9 319.5 47.6 314.4 47.5H15.3997C10.2997 47.6 5.99973 43.8 5.29973 38.8L2.49973 13.3C2.09973 7.8 6.09973 3 11.4997 2.5C11.8997 2.5 12.1997 2.5 12.5997 2.5H317.3C322.8 2.4 327.3 6.7 327.4 12.1C327.5 12.5 327.5 12.9 327.4 13.3Z" stroke="#453831" stroke-width="5" stroke-miterlimit="10"/>
<path opacity="0.1" d="M1.8999 30.3L2.8999 39.1C3.6999 45.4 9.1999 50.1 15.3999 50H314.4C314.5 50 314.6 50 314.6 50C320.9 50 326.2 45.4 327 39.1V38.9001L1.8999 30.3Z" fill="#453831"/>
</g>
<defs>
<clipPath id="clip0_328_31414">
<rect width="330" height="50" fill="white"/>
</clipPath>
</defs>
</svg>
