<svg width="330" height="60" viewBox="0 0 330 60" fill="none" xmlns="http://www.w3.org/2000/svg">
<path d="M313.141 57.5H13.4493C7.10849 57.5 2.17343 51.37 2.84141 44.34L5.83234 13.14C6.41059 7.14001 10.9867 2.5 16.4402 2.5H316.132C322.473 2.5 327.408 8.64004 326.74 15.67L323.749 46.87C323.171 52.92 318.595 57.5 313.141 57.5Z" fill="#C62A2A"/>
<path d="M313.141 57.5H13.4493C7.10849 57.5 2.17343 51.37 2.84141 44.34L5.83234 13.14C6.41059 7.14001 10.9867 2.5 16.4402 2.5H316.132C322.473 2.5 327.408 8.64004 326.74 15.67L323.749 46.87C323.171 52.92 318.595 57.5 313.141 57.5Z" stroke="#453831" stroke-width="5" stroke-miterlimit="10"/>
<path opacity="0.1" d="M13.4493 57.5001H313.141C316.646 57.5001 319.789 55.6078 321.741 52.6491L2.98977 42.7925L2.84141 44.3401C2.17343 51.3701 7.10849 57.5001 13.4493 57.5001Z" fill="#453831"/>
</svg>
