<svg width="25" height="25" viewBox="0 0 25 25" fill="none" xmlns="http://www.w3.org/2000/svg">
<path d="M24.5 12.5C24.5 19.127 19.127 24.5 12.5 24.5C5.873 24.5 0.5 19.127 0.5 12.5C0.5 5.873 5.873 0.5 12.5 0.5C19.127 0.5 24.5 5.873 24.5 12.5Z" fill="#FCDDCE"/>
<path fill-rule="evenodd" clip-rule="evenodd" d="M12.5 23.5C18.5747 23.5 23.5 18.5747 23.5 12.5C23.5 6.42528 18.5747 1.5 12.5 1.5C6.42528 1.5 1.5 6.42528 1.5 12.5C1.5 18.5747 6.42528 23.5 12.5 23.5ZM12.5 24.5C19.127 24.5 24.5 19.127 24.5 12.5C24.5 5.873 19.127 0.5 12.5 0.5C5.873 0.5 0.5 5.873 0.5 12.5C0.5 19.127 5.873 24.5 12.5 24.5Z" fill="#453831"/>
<g clip-path="url(#clip0_336_109308)">
<path d="M11.2337 14.607L7.50397 17.5697C7.42113 17.6342 7.35418 17.7163 7.30815 17.8099C7.26212 17.9035 7.2382 18.0062 7.2382 18.1103C7.2382 18.2143 7.26212 18.317 7.30815 18.4106C7.35418 18.5042 7.42113 18.5863 7.50397 18.6508L11.2337 21.6204C11.3364 21.7047 11.4614 21.7582 11.5939 21.7746C11.7265 21.7909 11.861 21.7695 11.9816 21.7128C12.1022 21.6561 12.2037 21.5665 12.2742 21.4546C12.3446 21.3427 12.3811 21.2132 12.3792 21.0815V19.8283C13.3617 19.7274 14.3105 19.4185 15.1608 18.9228C16.1841 18.3291 17.0486 17.5028 17.6822 16.5127C18.2999 15.5502 18.6637 14.4507 18.7404 13.3142C18.8026 12.2339 18.6238 11.1532 18.2165 10.1484C17.4802 8.29888 16.1636 6.72976 14.4588 5.67001C12.7541 4.61026 10.7504 4.11534 8.74024 4.25748C9.68135 4.32697 10.606 4.5389 11.4817 4.88583C12.3351 5.22863 13.1291 5.70022 13.8355 6.28367C15.2113 7.40155 16.1799 8.93122 16.5944 10.6407C16.7777 11.4258 16.7777 12.2417 16.5944 13.0267C16.4185 13.759 16.0581 14.4357 15.5467 14.9944C15.0579 15.5299 14.4468 15.943 13.7639 16.1994C13.3182 16.3661 12.8435 16.4445 12.367 16.4301V15.1476C12.3673 15.0179 12.3304 14.8908 12.2607 14.7808C12.1909 14.6709 12.0911 14.5826 11.9727 14.5261C11.8543 14.4696 11.7221 14.4472 11.5914 14.4616C11.4606 14.4759 11.3367 14.5263 11.2337 14.607Z" fill="white"/>
<path d="M9.4215 3.50006C11.2933 3.49794 13.1286 4.01064 14.721 4.98053C16.6223 6.12115 18.0938 7.84266 18.9118 9.88332C19.3572 10.9863 19.5515 12.1722 19.481 13.3573C19.3961 14.6144 18.9933 15.8306 18.3093 16.8949C17.6111 17.9798 16.6613 18.8855 15.5382 19.5374C14.7913 19.974 13.9739 20.2809 13.1216 20.4446V21.0661C13.1213 21.2535 13.0837 21.439 13.0107 21.6121C12.9378 21.7851 12.8309 21.9423 12.6964 22.0747C12.5618 22.207 12.4021 22.312 12.2264 22.3835C12.0506 22.455 11.8624 22.4917 11.6723 22.4914C11.3432 22.4924 11.024 22.3804 10.7695 22.1747L7.03803 19.212C6.87001 19.0784 6.73446 18.9094 6.64134 18.7174C6.54822 18.5255 6.49988 18.3153 6.49988 18.1025C6.49988 17.8897 6.54822 17.6796 6.64134 17.4876C6.73446 17.2956 6.87001 17.1266 7.03803 16.993L10.7695 14.0286C11.0244 13.8236 11.3433 13.7117 11.6723 13.7119C12.056 13.7119 12.4242 13.862 12.6958 14.1292C12.9675 14.3964 13.1206 14.7589 13.1216 15.1373V15.6296C13.2552 15.6 13.3865 15.5609 13.5144 15.5126C14.0864 15.298 14.5986 14.9529 15.0091 14.5055C15.4354 14.037 15.7356 13.4706 15.8822 12.858C16.036 12.1773 16.0319 11.4712 15.87 10.7923C15.4913 9.23909 14.6106 7.84943 13.3608 6.83285C12.7144 6.29687 11.9867 5.86411 11.2043 5.55034C10.3987 5.23213 9.54833 5.03764 8.68289 4.97364C8.49532 4.96094 8.31963 4.87852 8.19133 4.74303C8.06302 4.60754 7.99166 4.42909 7.99166 4.24374C7.99166 4.05838 8.06302 3.87993 8.19133 3.74445C8.31963 3.60896 8.49532 3.52654 8.68289 3.51383C8.93258 3.50867 9.17879 3.50006 9.4215 3.50006Z" fill="#453831"/>
<path d="M11.2337 14.607L7.50397 17.5697C7.42113 17.6342 7.35418 17.7163 7.30815 17.8099C7.26212 17.9035 7.2382 18.0062 7.2382 18.1103C7.2382 18.2143 7.26212 18.317 7.30815 18.4106C7.35418 18.5042 7.42113 18.5863 7.50397 18.6508L11.2337 21.6204C11.3364 21.7047 11.4614 21.7582 11.5939 21.7746C11.7265 21.7909 11.861 21.7695 11.9816 21.7128C12.1022 21.6561 12.2037 21.5665 12.2742 21.4546C12.3446 21.3427 12.3811 21.2132 12.3792 21.0815V19.8283C13.3617 19.7274 14.3105 19.4185 15.1608 18.9228C16.1841 18.3291 17.0486 17.5028 17.6822 16.5127C18.2999 15.5502 18.6637 14.4507 18.7404 13.3142C18.8026 12.2339 18.6238 11.1532 18.2165 10.1484C17.4802 8.29888 16.1636 6.72976 14.4588 5.67001C12.7541 4.61026 10.7504 4.11534 8.74024 4.25748C9.68135 4.32697 10.606 4.5389 11.4817 4.88583C12.3351 5.22863 13.1291 5.70022 13.8355 6.28367C15.2113 7.40155 16.1799 8.93122 16.5944 10.6407C16.7777 11.4258 16.7777 12.2417 16.5944 13.0267C16.4185 13.759 16.0581 14.4357 15.5467 14.9944C15.0579 15.5299 14.4468 15.943 13.7639 16.1994C13.3182 16.3661 12.8435 16.4445 12.367 16.4301V15.1476C12.3673 15.0179 12.3304 14.8908 12.2607 14.7808C12.1909 14.6709 12.0911 14.5826 11.9727 14.5261C11.8543 14.4696 11.7221 14.4472 11.5914 14.4616C11.4606 14.4759 11.3367 14.5263 11.2337 14.607Z" fill="#FCDDCE"/>
<path opacity="0.1" d="M11.2336 14.607L7.50389 17.5696C7.42175 17.6345 7.35554 17.7167 7.31019 17.8103C7.26483 17.9039 7.24151 18.0064 7.24197 18.1102C7.24197 18.1102 9.25876 18.5801 12.655 17.9914C16.4354 17.3372 17.4901 14.8118 17.6664 13.3124C17.8009 12.2429 17.6728 11.1571 17.2927 10.1466C16.5297 8.19959 14.794 6.03397 12.4036 4.98215C11.513 4.58793 9.67783 4.19371 8.73666 4.26084C9.67777 4.33033 10.6024 4.54226 11.4781 4.88918C12.3325 5.23062 13.1277 5.70105 13.8354 6.28359C15.2112 7.40147 16.1798 8.93113 16.5943 10.6407C16.7776 11.4257 16.7776 12.2416 16.5943 13.0266C16.4184 13.7589 16.0581 14.4357 15.5466 14.9943C15.0578 15.5298 14.4467 15.9429 13.7638 16.1993C13.3181 16.366 12.8434 16.4444 12.3669 16.43V15.1475C12.3672 15.0178 12.3304 14.8907 12.2606 14.7807C12.1909 14.6708 12.091 14.5825 11.9726 14.526C11.8542 14.4695 11.722 14.4472 11.5913 14.4615C11.4606 14.4758 11.3366 14.5262 11.2336 14.607Z" fill="#453831"/>
</g>
<defs>
<clipPath id="clip0_336_109308">
<rect width="13" height="19" fill="white" transform="translate(19.5 22.5) rotate(-180)"/>
</clipPath>
</defs>
</svg>
