<svg width="455" height="399" viewBox="0 0 455 399" fill="none" xmlns="http://www.w3.org/2000/svg">
<path d="M446.418 57.6186C445.586 51.9294 442.776 46.5111 438.278 41.9204C433.779 37.3296 427.754 33.7317 420.821 31.4963C377.926 17.8658 290.484 5 227.491 5C164.498 5 77.0563 17.8658 34.1609 31.4963C27.228 33.7317 21.2029 37.3296 16.7044 41.9204C12.2059 46.5111 9.3961 51.9294 8.56362 57.6186C-2.37073 130.641 14.6103 290.857 22.6033 357.597C23.5997 365.933 28.5429 373.711 36.5146 379.486C44.4863 385.261 54.9446 388.64 65.947 388.997L209.034 393.693C221.339 394.103 233.643 394.103 245.948 393.693L389.035 388.997C400.037 388.64 410.496 385.261 418.468 379.486C426.439 373.711 431.382 365.933 432.379 357.597C440.372 290.857 457.397 130.641 446.418 57.6186Z" fill="#FCDDCE" stroke="#453831" stroke-width="10" stroke-miterlimit="10"/>
</svg>
