<svg width="99" height="99" viewBox="0 0 99 99" fill="none" xmlns="http://www.w3.org/2000/svg">
<path d="M94 49.5C94 74.0767 74.0767 94 49.5 94C24.9233 94 5 74.0767 5 49.5C5 24.9233 24.9233 5 49.5 5C74.0767 5 94 24.9233 94 49.5Z" fill="#5FA8D9" stroke="#453831" stroke-width="10"/>
<path fill-rule="evenodd" clip-rule="evenodd" d="M35.726 32.7131H63.4892C64.4714 32.7131 65.4529 32.8572 66.4786 33.3354C67.7082 33.9086 68.3602 34.8119 68.817 35.48C68.8525 35.532 68.8857 35.5855 68.9165 35.6404C69.4536 36.5964 69.7304 37.6287 69.7304 38.7392C69.7304 39.7941 69.4794 40.9436 68.9165 41.9454C68.9112 41.9551 68.9057 41.9647 68.9002 41.9741L51.3599 72.1045C50.9731 72.7691 50.2612 73.1767 49.4924 73.1739C48.7235 73.1713 48.0144 72.7585 47.6324 72.0913L30.4142 42.0251C30.4092 42.017 30.4043 42.0089 30.3993 42.0006C30.0053 41.3514 29.3959 40.3471 29.2893 39.0513C29.1913 37.8595 29.4592 36.6657 30.0579 35.6303C30.6567 34.5948 31.5582 33.7671 32.6424 33.2605C33.8049 32.7174 34.983 32.7131 35.726 32.7131ZM47.3478 37.0173H35.726C34.9625 37.0173 34.6694 37.0644 34.4645 37.1602C34.1811 37.2926 33.9432 37.51 33.7841 37.7851C33.625 38.0604 33.553 38.3793 33.5792 38.6986C33.5942 38.8815 33.6688 39.0909 34.1088 39.8166C34.118 39.8318 34.127 39.8471 34.1359 39.8627L47.3478 62.9331V37.0173ZM51.6521 37.0173V63.0469L65.1701 39.8259C65.3226 39.5487 65.4261 39.1483 65.4261 38.7392C65.4261 38.4072 65.3573 38.1191 65.2035 37.8221C65.0421 37.5899 64.9438 37.4671 64.8616 37.3829C64.791 37.311 64.7368 37.2724 64.66 37.2367C64.3404 37.0877 64.0134 37.0173 63.4892 37.0173H51.6521Z" fill="#FCDDCE"/>
</svg>
