<svg width="48" height="48" viewBox="0 0 48 48" fill="none" xmlns="http://www.w3.org/2000/svg">
<path d="M42 24C42 33.9411 33.9411 42 24 42C14.0589 42 6 33.9411 6 24C6 14.0589 14.0589 6 24 6C33.9411 6 42 14.0589 42 24Z" fill="#D94A4A"/>
<path fill-rule="evenodd" clip-rule="evenodd" d="M24 40.2C32.947 40.2 40.2 32.947 40.2 24C40.2 15.053 32.947 7.8 24 7.8C15.053 7.8 7.8 15.053 7.8 24C7.8 32.947 15.053 40.2 24 40.2ZM24 42C33.9411 42 42 33.9411 42 24C42 14.0589 33.9411 6 24 6C14.0589 6 6 14.0589 6 24C6 33.9411 14.0589 42 24 42Z" fill="#453831"/>
<path fill-rule="evenodd" clip-rule="evenodd" d="M24.9457 18.6126L29.4061 23.0742C29.4331 23.0341 29.4621 22.9953 29.4929 22.9581C31.1704 21.2768 32.8504 19.5976 34.5328 17.9204C34.6192 17.8385 34.6871 17.7391 34.7321 17.6289C34.7771 17.5187 34.7981 17.4002 34.7938 17.2812C34.7915 16.5414 34.7923 15.8013 34.7931 15.0612V15.0611V15.061V15.061V15.0609C34.7934 14.6908 34.7938 14.3206 34.7938 13.9504C34.7938 13.9342 34.7943 13.9179 34.7948 13.9015V13.9015V13.9014V13.9014V13.9013C34.7958 13.8684 34.7968 13.8354 34.7938 13.8027C34.7875 13.697 34.7549 13.5945 34.6989 13.5046C34.6429 13.4147 34.5652 13.3403 34.4731 13.2881C34.3479 13.2231 34.2075 13.1931 34.0667 13.2013C32.9494 13.2047 31.8316 13.2069 30.7144 13.2013C30.5955 13.1973 30.4771 13.2187 30.3671 13.264C30.2571 13.3092 30.158 13.3774 30.0763 13.464C28.3977 15.1441 26.7187 16.8245 25.0393 18.505C25.0132 18.5314 24.9889 18.5609 24.9688 18.585L24.9688 18.5851L24.9688 18.5851C24.9602 18.5955 24.9524 18.6049 24.9457 18.6126ZM13.2195 13.6675L13.2008 13.703V17.5428C13.2754 17.6835 13.3681 17.8138 13.4764 17.9306C17.2249 21.6776 20.9726 25.4255 24.7196 29.1744C24.7482 29.2029 24.7787 29.2298 24.8089 29.2564L24.8089 29.2564L24.8089 29.2564L24.809 29.2564L24.809 29.2564L24.809 29.2564L24.809 29.2564C24.8247 29.2702 24.8403 29.284 24.8555 29.2978C25.4857 28.7206 29.1835 24.9981 29.3018 24.8132C29.2621 24.7874 29.2244 24.7585 29.1891 24.7269C25.4395 20.9814 21.6923 17.2341 17.9475 13.4848C17.8618 13.3925 17.7574 13.3196 17.6412 13.271C17.5251 13.2224 17.3998 13.1992 17.2739 13.203C16.4564 13.2084 15.6388 13.2076 14.8213 13.2069L14.8213 13.2069C14.5352 13.2066 14.249 13.2064 13.9629 13.2064C13.9465 13.2064 13.9301 13.2059 13.9137 13.2053C13.8809 13.2043 13.8481 13.2033 13.8157 13.2064C13.6992 13.2126 13.5865 13.2504 13.4898 13.3157C13.3931 13.3811 13.316 13.4715 13.2667 13.5773C13.2514 13.6076 13.2354 13.6376 13.2195 13.6675ZM13.2464 32.5571C13.2347 32.6027 13.2194 32.6474 13.2008 32.6906L13.2002 33.1123C13.218 33.1407 13.2319 33.1714 13.2413 33.2036C13.3016 33.5946 13.4849 33.9562 13.7647 34.2358C14.0445 34.5155 14.4061 34.6987 14.7971 34.7588C14.8291 34.7683 14.8597 34.7821 14.8879 34.8H15.3101C15.346 34.7813 15.3838 34.7666 15.4228 34.756C15.666 34.7184 15.8986 34.6301 16.1054 34.4967L16.1348 34.478C16.2356 34.414 16.3376 34.3491 16.4059 34.2464C16.1731 33.9635 13.8772 31.6879 13.7442 31.6067C13.4822 31.8631 13.3079 32.1957 13.2464 32.5571ZM32.6941 34.8C32.6511 34.7813 32.6069 34.7658 32.5616 34.7537C32.2004 34.6907 31.8665 34.5204 31.6034 34.265C31.6907 34.1224 33.9477 31.8451 34.2527 31.5898C34.27 31.6103 34.288 31.6306 34.306 31.6509C34.3464 31.6966 34.3871 31.7424 34.4218 31.7916C34.5962 32.0301 34.712 32.3064 34.7598 32.598C34.8076 32.8896 34.7861 33.1884 34.697 33.4702C34.608 33.7519 34.4538 34.0088 34.2471 34.2199C34.0403 34.4311 33.7868 34.5906 33.5069 34.6855C33.446 34.7059 33.3828 34.7189 33.3195 34.7319L33.3195 34.7319C33.2797 34.7401 33.24 34.7482 33.2008 34.7582C33.1695 34.7696 33.1391 34.7835 33.1101 34.8H32.6941ZM23.0731 29.379L22.2992 30.1608C22.3137 30.178 22.327 30.1945 22.3397 30.2102L22.3397 30.2102C22.3645 30.2408 22.387 30.2685 22.4119 30.2939C22.4626 30.3469 22.5144 30.3981 22.5661 30.4492L22.5662 30.4493L22.5664 30.4495L22.5664 30.4495C22.6244 30.5069 22.6823 30.5641 22.7383 30.6236C22.8262 30.7116 22.8855 30.8239 22.9088 30.946C22.932 31.0682 22.918 31.1944 22.8685 31.3085C22.7259 31.6856 22.2411 31.8045 21.9176 31.5514C21.869 31.5109 21.8228 31.4674 21.7795 31.4212L20.6775 30.3187C20.6463 30.2875 20.6141 30.2575 20.5782 30.2242C20.5576 30.205 20.5358 30.1848 20.5123 30.1625L20.3062 30.3684C20.0646 30.6098 19.8272 30.8469 19.5974 31.074L16.9346 28.4117C17.0132 28.312 17.1116 28.2171 17.2124 28.1199L17.2124 28.1199L17.2124 28.1199C17.2648 28.0693 17.3179 28.0181 17.3692 27.9653C17.4715 27.8599 17.5768 27.755 17.6847 27.6474L17.6849 27.6472C17.7351 27.5972 17.7858 27.5466 17.8371 27.4952C17.8229 27.4788 17.8098 27.4633 17.7974 27.4486L17.7974 27.4486L17.7974 27.4486L17.7974 27.4486L17.7974 27.4485L17.7973 27.4485C17.7708 27.417 17.747 27.3888 17.7209 27.3627C17.3241 26.964 16.9263 26.5662 16.5276 26.1694C16.4626 26.1103 16.4106 26.0382 16.3751 25.9578C16.3396 25.8775 16.3213 25.7905 16.3213 25.7027C16.3213 25.4631 16.4166 25.2754 16.6268 25.1638C16.7276 25.1042 16.8435 25.0753 16.9605 25.0806C17.0774 25.0859 17.1903 25.1252 17.2852 25.1937C17.38 25.2664 17.4688 25.3467 17.5507 25.4338C17.6365 25.5164 17.7203 25.6016 17.8176 25.7005L17.8326 25.7156L18.6149 24.9355C18.7542 25.0183 22.9204 29.1721 23.0731 29.379ZM31.1141 28.4405L30.2094 27.5341C30.2269 27.5152 30.2427 27.4978 30.2575 27.4816L30.2576 27.4814C30.2855 27.4508 30.3097 27.4242 30.3351 27.3988L31.4534 26.2782C31.5047 26.2301 31.5529 26.1789 31.5977 26.1249C31.6714 26.034 31.7174 25.924 31.7304 25.8078C31.7434 25.6916 31.7228 25.5741 31.671 25.4693C31.5645 25.2337 31.3689 25.1322 31.1135 25.1277C30.9066 25.1238 30.7528 25.219 30.613 25.3588C28.8637 27.1077 27.1153 28.8572 25.3679 30.6073C25.2995 30.6686 25.2423 30.7412 25.1988 30.822C24.9964 31.2544 25.2692 31.7149 25.7174 31.7239C25.8124 31.7268 25.9068 31.7091 25.9944 31.6722C26.0819 31.6352 26.1605 31.5798 26.2247 31.5097C26.6065 31.1264 26.989 30.7437 27.3723 30.3615C27.4025 30.3314 27.4334 30.3023 27.4678 30.2701L27.4679 30.27C27.4895 30.2497 27.5125 30.2281 27.5375 30.2042L28.4462 31.1112L31.1141 28.4405ZM15.9884 29.3986L15.9892 29.3978L15.9893 29.3976L18.6065 32.0142L18.1849 32.4361L18.1842 32.4368C17.9024 32.7187 17.6156 33.0057 17.3275 33.2949C17.2119 33.2188 14.8974 30.9201 14.7024 30.6834C15.1446 30.2423 15.5749 29.812 15.9884 29.3986ZM29.3982 32.0137L30.6857 33.3006C30.9551 33.0723 33.2228 30.7882 33.2955 30.6755L32.0154 29.3959L29.3982 32.0137Z" fill="#453831"/>
</svg>
