<svg width="48" height="48" viewBox="0 0 48 48" fill="none" xmlns="http://www.w3.org/2000/svg">
<path d="M42 24C42 33.9411 33.9411 42 24 42C14.0589 42 6 33.9411 6 24C6 14.0589 14.0589 6 24 6C33.9411 6 42 14.0589 42 24Z" fill="#5FA8D9"/>
<path fill-rule="evenodd" clip-rule="evenodd" d="M24 40.2C32.947 40.2 40.2 32.947 40.2 24C40.2 15.053 32.947 7.8 24 7.8C15.053 7.8 7.8 15.053 7.8 24C7.8 32.947 15.053 40.2 24 40.2ZM24 42C33.9411 42 42 33.9411 42 24C42 14.0589 33.9411 6 24 6C14.0589 6 6 14.0589 6 24C6 33.9411 14.0589 42 24 42Z" fill="#453831"/>
<path d="M20.8992 11.3999C20.8992 11.661 17.5498 23.3184 17.5498 23.3184H21.949L16.2002 36.5999L31.8002 18.2169H27.0507L31.8002 11.3999H20.8992Z" fill="#FCDDCE"/>
</svg>
