<svg width="48" height="48" viewBox="0 0 48 48" fill="none" xmlns="http://www.w3.org/2000/svg">
<path d="M42 24C42 33.9411 33.9411 42 24 42C14.0589 42 6 33.9411 6 24C6 14.0589 14.0589 6 24 6C33.9411 6 42 14.0589 42 24Z" fill="#59AB45"/>
<path fill-rule="evenodd" clip-rule="evenodd" d="M24 40.2C32.947 40.2 40.2 32.947 40.2 24C40.2 15.053 32.947 7.8 24 7.8C15.053 7.8 7.8 15.053 7.8 24C7.8 32.947 15.053 40.2 24 40.2ZM24 42C33.9411 42 42 33.9411 42 24C42 14.0589 33.9411 6 24 6C14.0589 6 6 14.0589 6 24C6 33.9411 14.0589 42 24 42Z" fill="#453831"/>
<path d="M33.9446 17.9201C33.4813 17.121 32.8461 16.4432 32.0883 15.9391C31.3305 15.4351 30.4706 15.1185 29.5752 15.0139C28.8541 14.9648 28.1302 15.046 27.4361 15.2539C26.2814 15.6249 25.2062 16.2215 24.2689 17.0114L23.9953 17.26L23.8958 17.1742C23.4057 16.7631 22.8845 16.3933 22.3371 16.0684C21.1616 15.3184 19.7953 14.951 18.4154 15.0139C18.0153 15.0467 17.6202 15.1272 17.2381 15.2539C16.3733 15.5709 15.5944 16.097 14.9663 16.7885C14.6286 17.1376 14.3207 17.5162 14.046 17.9201C10.8954 22.6094 17.2878 29.7076 21.0768 33.2739C21.5411 33.7197 21.9723 34.1312 22.3371 34.4226L23.075 35.0656C23.3366 35.2811 23.6609 35.3989 23.9953 35.3999C24.3304 35.4031 24.656 35.2848 24.9156 35.0656C27.4361 32.9396 37.8166 23.6381 33.9446 17.9201Z" fill="#FCDDCE"/>
</svg>
