<svg width="24" height="24" viewBox="0 0 24 24" fill="none" xmlns="http://www.w3.org/2000/svg">
<path d="M24 12C24 18.627 18.627 24 12 24C5.373 24 0 18.627 0 12C0 5.373 5.373 0 12 0C18.627 0 24 5.373 24 12Z" fill="#FCDDCE"/>
<path fill-rule="evenodd" clip-rule="evenodd" d="M12 23C18.0747 23 23 18.0747 23 12C23 5.92528 18.0747 1 12 1C5.92528 1 1 5.92528 1 12C1 18.0747 5.92528 23 12 23ZM12 24C18.627 24 24 18.627 24 12C24 5.373 18.627 0 12 0C5.373 0 0 5.373 0 12C0 18.627 5.373 24 12 24Z" fill="#453831"/>
<path fill-rule="evenodd" clip-rule="evenodd" d="M7.23404 6H16.8404C17.1803 6 17.5199 6.04985 17.8748 6.21532C18.3003 6.41363 18.5259 6.72621 18.6839 6.95738C18.6962 6.97536 18.7077 6.9939 18.7184 7.01286C18.9042 7.34367 19 7.70084 19 8.08511C19 8.45012 18.9131 8.84785 18.7184 9.1945C18.7165 9.19786 18.7146 9.20117 18.7127 9.20441L12.6436 19.63C12.5097 19.8599 12.2634 20.001 11.9974 20C11.7313 19.9991 11.486 19.8562 11.3538 19.6254L5.39606 9.22209C5.39435 9.21927 5.39263 9.21646 5.39092 9.21358C5.25457 8.98897 5.04372 8.64146 5.00683 8.19308C4.97295 7.78073 5.06562 7.36765 5.2728 7.00937C5.47999 6.6511 5.79189 6.3647 6.16705 6.18938C6.5693 6.00147 6.97694 6 7.23404 6ZM11.2553 7.48931H7.23404C6.96985 7.48931 6.86843 7.50559 6.79753 7.53874C6.69947 7.58456 6.61714 7.6598 6.56209 7.75498C6.50703 7.85022 6.48214 7.96057 6.49119 8.07104C6.49639 8.13436 6.5222 8.20678 6.67446 8.45789C6.67764 8.46315 6.68076 8.46847 6.68381 8.47385L11.2553 16.4565V7.48931ZM12.7447 7.48931V16.4959L17.4221 8.46113C17.4748 8.36521 17.5106 8.22666 17.5106 8.08511C17.5106 7.97024 17.4868 7.87053 17.4336 7.76776C17.3778 7.68745 17.3438 7.64493 17.3153 7.61581C17.2909 7.59092 17.2721 7.57758 17.2456 7.56523C17.135 7.51366 17.0218 7.48931 16.8404 7.48931H12.7447Z" fill="#453831"/>
</svg>
